HIERARCHY
ROOT Hips
{
	OFFSET 0.00 0.00 0.00
	CHANNELS 6 Xposition Yposition Zposition Xrotation Yrotation Zrotation
	JOINT Spine
	{
		OFFSET 0.00000 1.15266 1.72900
		CHANNELS 3 Xrotation Yrotation Zrotation
		JOINT Spine1
		{
			OFFSET 0.00000 0.40032 2.27031
			CHANNELS 3 Xrotation Yrotation Zrotation
			JOINT Spine2
			{
				OFFSET 0.00000 0.20092 2.29656
				CHANNELS 3 Xrotation Yrotation Zrotation
				JOINT Spine3
				{
					OFFSET 0.00000 0.00000 2.30533
					CHANNELS 3 Xrotation Yrotation Zrotation
					JOINT Neck
					{
						OFFSET 0.00000 -0.86449 6.05149
						CHANNELS 3 Xrotation Yrotation Zrotation
						JOINT Head
						{
							OFFSET 0.00000 -0.55043 3.12167
							CHANNELS 3 Xrotation Yrotation Zrotation
							End Site
							{
								OFFSET 0.00000 0.00000 3.73175
							}
						}
					}
					JOINT RightShoulder
					{
						OFFSET -0.78828 -1.31380 4.25672
						CHANNELS 3 Xrotation Yrotation Zrotation
						JOINT RightArm
						{
							OFFSET -3.91513 0.00000 0.00000
							CHANNELS 3 Xrotation Yrotation Zrotation
							JOINT RightForeArm
							{
								OFFSET -6.91491 0.00000 0.00000
								CHANNELS 3 Xrotation Yrotation Zrotation
								JOINT RightHand
								{
									OFFSET -6.09622 0.00000 0.00000
									CHANNELS 3 Xrotation Yrotation Zrotation
									JOINT RightHandEnd
									{
										OFFSET -1.74995 0.00000 0.00000
										CHANNELS 3 Xrotation Yrotation Zrotation
										End Site
										{
											OFFSET -1.74995 0.00000 0.00000
										}
									}
									JOINT RightHandThumb1
									{
										OFFSET -0.69998 -1.16663 -0.46665
										CHANNELS 3 Yrotation Xrotation Zrotation
										End Site
										{
											OFFSET -1.69032 -0.45292 0.00000
										}
									}
								}
							}
						}
					}
					JOINT LeftShoulder
					{
						OFFSET 0.78828 -1.31380 4.25672
						CHANNELS 3 Xrotation Yrotation Zrotation
						JOINT LeftArm
						{
							OFFSET 3.91513 0.00000 0.00000
							CHANNELS 3 Xrotation Yrotation Zrotation
							JOINT LeftForeArm
							{
								OFFSET 6.91491 0.00000 0.00000
								CHANNELS 3 Xrotation Yrotation Zrotation
								JOINT LeftHand
								{
									OFFSET 6.09622 0.00000 0.00000
									CHANNELS 3 Xrotation Yrotation Zrotation
									JOINT LeftHandEnd
									{
										OFFSET 1.74995 0.00000 0.00000
										CHANNELS 3 Xrotation Yrotation Zrotation
										End Site
										{
											OFFSET 1.74995 0.00000 0.00000
										}
									}
									JOINT LeftHandThumb1
									{
										OFFSET 0.69998 -1.16663 -0.46665
										CHANNELS 3 Yrotation Xrotation Zrotation
										End Site
										{
											OFFSET 1.69032 -0.45292 0.00000
										}
									}
								}
							}
						}
					}
				}
			}
		}
	}
	JOINT RightUpLeg
	{
		OFFSET -2.33857 0.00000 -0.68318
		CHANNELS 3 Xrotation Yrotation Zrotation
		JOINT RightLeg
		{
			OFFSET 0.00000 0.00000 -10.74496
			CHANNELS 3 Xrotation Yrotation Zrotation
			JOINT RightFoot
			{
				OFFSET 0.00000 0.00000 -10.93085
				CHANNELS 3 Xrotation Yrotation Zrotation
				JOINT RightToeBase
				{
					OFFSET 0.00000 -4.08727 -1.48765
					CHANNELS 3 Xrotation Yrotation Zrotation
					End Site
					{
						OFFSET 0.00000 -1.89187 -0.00000
					}
				}
			}
		}
	}
	JOINT LeftUpLeg
	{
		OFFSET 2.33857 0.00000 -0.68318
		CHANNELS 3 Xrotation Yrotation Zrotation
		JOINT LeftLeg
		{
			OFFSET 0.00000 0.00000 -10.74496
			CHANNELS 3 Xrotation Yrotation Zrotation
			JOINT LeftFoot
			{
				OFFSET 0.00000 0.00000 -10.93085
				CHANNELS 3 Xrotation Yrotation Zrotation
				JOINT LeftToeBase
				{
					OFFSET 0.00000 -4.08727 -1.48765
					CHANNELS 3 Xrotation Yrotation Zrotation
					End Site
					{
						OFFSET 0.00000 -1.89187 -0.00000
					}
				}
			}
		}
	}
}
MOTION
Frames: 15
Frame Time: 0.008342
 -0.3101 86.7969 24.1490 -9.1255 -2.8356 -86.5854 -4.6951 4.5105 1.3186 -2.6762 -1.2622 0.0053 14.9464 10.6924 2.0948 1.0074 1.4254 -1.1559 2.1720 3.1397 4.6322 19.0194 -1.8781 5.4600 -0.5103 -30.3624 -2.6855 25.2509 -45.7861 7.2588 -0.0000 0.0000 46.9025 -1.5271 8.8593 -0.0213 -0.0000 0.0000 0.0000 0.0000 0.0000 -0.0000 -4.9833 26.8948 8.0666 33.9628 30.6862 -26.2290 -0.0000 -0.0000 -22.4320 -4.3524 -21.4909 -2.7292 -0.0000 0.0000 -0.0000 -0.0000 -0.0000 -0.0000 -17.7468 8.2737 24.8709 44.7381 0.0000 0.0000 -22.4060 3.4062 -3.6233 -6.8322 0.0000 -0.0000 -1.8249 7.0391 -21.6502 2.5631 0.0000 0.0000 -5.5693 4.0051 -20.5519 -0.7969 0.0000 -0.0000
 -0.3323 86.8628 24.1368 -9.2910 -3.1835 -85.3015 -4.7947 4.4586 1.3521 -2.7067 -1.3720 -0.0083 14.9871 11.1151 2.0483 1.0113 1.4617 -1.1909 2.1155 2.9833 4.7737 18.9256 -1.9136 5.6480 -0.5064 -30.4119 -2.8083 25.7151 -46.0536 7.3671 -0.0000 0.0000 46.6460 -1.6858 8.6818 -0.0916 -0.0000 -0.0000 -0.0000 0.0000 -0.0000 0.0000 -4.9691 26.9341 8.1303 33.7505 30.4201 -25.8638 -0.0000 -0.0000 -22.5013 -4.7346 -21.5248 -2.7076 -0.0000 -0.0000 0.0000 -0.0000 -0.0000 0.0000 -17.1063 8.8305 27.1946 42.3941 0.0000 0.0000 -22.5221 3.0943 -3.6131 -6.8067 0.0000 -0.0000 -2.0040 7.0506 -22.4921 2.3544 0.0000 0.0000 -5.3824 4.3675 -20.8133 -0.7007 0.0000 -0.0000
 -0.3534 86.9292 24.1227 -9.4806 -3.4778 -84.0204 -4.8033 4.4132 1.3809 -2.7184 -1.4194 -0.0165 15.0014 11.4835 2.0299 1.0124 1.5099 -1.2412 2.0206 2.8131 4.9283 18.8116 -1.9262 5.8231 -0.4889 -30.4348 -2.8924 26.1580 -46.3305 7.4655 -0.0000 0.0000 46.3987 -1.8218 8.4716 -0.1776 0.0000 -0.0000 -0.0000 0.0000 -0.0000 -0.0000 -4.9546 26.9690 8.1901 33.5319 30.1564 -25.5471 -0.0000 -0.0000 -22.5206 -5.0466 -21.5721 -2.6809 -0.0000 0.0000 0.0000 0.0000 -0.0000 0.0000 -16.3498 9.5126 29.4191 39.9651 0.0000 0.0000 -22.5501 2.5913 -3.6812 -6.6964 0.0000 -0.0000 -2.1220 7.0829 -23.2039 2.1281 0.0000 0.0000 -5.1698 4.7434 -21.1589 -0.6057 0.0000 -0.0000
 -0.3745 86.9979 24.1077 -9.6676 -3.6885 -82.7493 -4.7204 4.3557 1.3993 -2.6984 -1.4088 -0.0040 15.0189 11.7786 2.0138 1.0002 1.5609 -1.2751 1.8846 2.6588 5.0888 18.6759 -1.9224 5.9987 -0.4680 -30.4031 -2.9534 26.6023 -46.6273 7.5914 -0.0000 0.0000 46.1406 -1.9327 8.2446 -0.2661 -0.0000 0.0000 0.0000 0.0000 -0.0000 0.0000 -4.9533 27.0312 8.2135 33.2706 29.9099 -25.2076 -0.0000 -0.0000 -22.5202 -5.2847 -21.5966 -2.6461 0.0000 0.0000 0.0000 0.0000 0.0000 0.0000 -15.4767 10.2634 31.4663 37.5343 0.0000 0.0000 -22.5005 1.9005 -3.8148 -6.5008 0.0000 -0.0000 -2.1387 7.0916 -23.7961 1.8645 0.0000 0.0000 -4.9373 5.1290 -21.5939 -0.5252 0.0000 -0.0000
 -0.3887 87.0700 24.0916 -9.8420 -3.9883 -81.5083 -4.7026 4.3258 1.4167 -2.6536 -1.4915 -0.0137 15.0293 12.1725 2.0209 0.9780 1.5935 -1.2892 1.7004 2.5000 5.2602 18.5160 -1.9085 6.1790 -0.4483 -30.3909 -2.9958 27.0248 -46.8838 7.7200 -0.0000 0.0000 45.8776 -2.0286 7.9957 -0.3566 -0.0000 -0.0000 -0.0000 -0.0000 -0.0000 0.0000 -4.9516 27.1385 8.1855 32.9424 29.6334 -24.8308 -0.0000 -0.0000 -22.4936 -5.4912 -21.5687 -2.6198 0.0000 0.0000 -0.0000 0.0000 -0.0000 -0.0000 -14.7610 11.0661 33.2193 35.2434 0.0000 0.0000 -22.3954 1.0221 -3.9142 -6.2300 0.0000 -0.0000 -2.2733 7.0934 -24.2539 1.6068 0.0000 0.0000 -4.6899 5.5290 -22.1372 -0.4705 0.0000 -0.0000
 -0.4028 87.1465 24.0767 -9.9947 -4.1820 -80.3048 -4.5607 4.2489 1.4236 -2.5973 -1.4959 -0.0036 15.0410 12.4644 2.0825 0.9457 1.6580 -1.3189 1.4800 2.3538 5.4598 18.3376 -1.8858 6.3730 -0.3953 -30.3729 -2.9902 27.4225 -47.1126 7.8718 -0.0000 0.0000 45.5942 -2.1219 7.7474 -0.4388 0.0000 0.0000 -0.0000 0.0000 -0.0000 0.0000 -4.9392 27.2902 8.1178 32.5473 29.3436 -24.4380 -0.0000 -0.0000 -22.4249 -5.6884 -21.4827 -2.6158 0.0000 -0.0000 -0.0000 0.0000 -0.0000 0.0000 -14.0095 11.8511 34.5631 33.1529 0.0000 0.0000 -22.2595 0.0152 -3.9269 -5.9024 0.0000 -0.0000 -2.2787 7.0322 -24.6376 1.2837 0.0000 0.0000 -4.4221 5.9273 -22.7633 -0.4463 0.0000 -0.0000
 -0.4103 87.2299 24.0637 -10.0662 -4.4500 -79.1521 -4.4913 4.1376 1.4319 -2.5177 -1.6506 -0.0296 15.0559 12.9335 2.1739 0.8992 1.6931 -1.3184 1.2176 2.2038 5.6778 18.1368 -1.8666 6.5907 -0.3509 -30.4012 -2.9745 27.8087 -47.2818 8.0584 -0.0000 0.0000 45.2623 -2.2269 7.5070 -0.5020 -0.0000 -0.0000 -0.0000 -0.0000 -0.0000 0.0000 -4.9268 27.5021 7.9817 32.0640 29.0081 -23.9816 -0.0000 -0.0000 -22.3250 -5.8980 -21.3094 -2.6297 -0.0000 0.0000 -0.0000 -0.0000 0.0000 0.0000 -13.4890 12.5508 35.3638 31.3548 0.0000 0.0000 -22.0856 -1.0887 -3.7282 -5.5474 0.0000 -0.0000 -2.3960 6.8819 -24.9622 0.9474 0.0000 0.0000 -4.1477 6.3401 -23.4685 -0.4598 0.0000 -0.0000
 -0.4178 87.3204 24.0546 -10.0658 -4.6091 -78.0489 -4.3080 3.9420 1.4243 -2.4358 -1.7702 -0.0367 15.0747 13.3343 2.3140 0.8422 1.7598 -1.3200 0.9271 2.0698 5.9342 17.9226 -1.8509 6.8356 -0.2972 -30.4458 -2.9284 28.1951 -47.3982 8.2959 -0.0000 0.0000 44.8733 -2.3583 7.2858 -0.5545 -0.0000 -0.0000 -0.0000 -0.0000 -0.0000 -0.0000 -4.9093 27.7837 7.8109 31.5167 28.6241 -23.5069 -0.0000 -0.0000 -22.1738 -6.1481 -21.0708 -2.6690 0.0000 0.0000 -0.0000 0.0000 -0.0000 -0.0000 -13.0028 13.1157 35.5309 29.8742 0.0000 0.0000 -21.8847 -2.2130 -3.2603 -5.1910 0.0000 -0.0000 -2.4069 6.6083 -25.3095 0.5554 0.0000 0.0000 -3.8682 6.7529 -24.2028 -0.5043 0.0000 -0.0000
 -0.4190 87.4193 24.0494 -9.9584 -4.8264 -77.0045 -4.1770 3.6788 1.4106 -2.3586 -1.9675 -0.0570 15.1035 13.8065 2.5007 0.7651 1.8368 -1.3156 0.6116 1.9385 6.2251 17.6918 -1.8487 7.1201 -0.2480 -30.5307 -2.8593 28.5963 -47.4534 8.6090 -0.0000 0.0000 44.3880 -2.5314 7.1025 -0.5807 0.0000 0.0000 0.0000 -0.0000 0.0000 0.0000 -4.8952 28.1328 7.6021 30.9042 28.1790 -23.0026 -0.0000 -0.0000 -21.9717 -6.4526 -20.7660 -2.7316 -0.0000 0.0000 -0.0000 -0.0000 -0.0000 0.0000 -12.7808 13.5228 35.0041 28.7629 0.0000 0.0000 -21.6412 -3.3188 -2.4342 -4.8598 0.0000 -0.0000 -2.5423 6.2244 -25.6749 0.1764 0.0000 0.0000 -3.5940 7.1803 -24.9612 -0.5762 0.0000 -0.0000
 -0.4173 87.5279 24.0492 -9.7069 -5.0304 -76.0181 -4.0498 3.3112 1.3939 -2.2746 -2.2524 -0.0919 15.1206 14.3515 2.7329 0.6792 1.9189 -1.3039 0.2756 1.8080 6.5582 17.4531 -1.8612 7.4392 -0.2094 -30.6425 -2.7742 29.0367 -47.4532 9.0221 -0.0000 0.0000 43.7944 -2.7557 6.9616 -0.5942 0.0000 -0.0000 -0.0000 -0.0000 -0.0000 0.0000 -4.8899 28.5314 7.3727 30.2551 27.6889 -22.5005 -0.0000 -0.0000 -21.7166 -6.8148 -20.4250 -2.8044 0.0000 -0.0000 0.0000 -0.0000 0.0000 0.0000 -12.7302 13.7130 33.8052 27.9801 0.0000 0.0000 -21.3257 -4.3313 -1.2703 -4.5762 0.0000 -0.0000 -2.7385 5.6795 -26.0806 -0.1832 0.0000 -0.0000 -3.3406 7.6279 -25.7076 -0.6663 0.0000 -0.0000
 -0.4110 87.6426 24.0525 -9.3918 -5.2298 -75.0810 -3.8892 2.9142 1.3621 -2.1858 -2.5656 -0.1253 15.0794 14.8795 3.0065 0.5855 2.0252 -1.2840 -0.0626 1.6982 6.9332 17.2141 -1.8910 7.8009 -0.1722 -30.7177 -2.6671 29.5554 -47.4433 9.5802 -0.0000 0.0000 43.0727 -3.0297 6.8764 -0.6006 -0.0000 0.0000 -0.0000 -0.0000 0.0000 -0.0000 -4.8962 28.9605 7.1508 29.6007 27.1925 -22.0336 -0.0000 -0.0000 -21.4137 -7.2281 -20.0898 -2.8813 0.0000 -0.0000 0.0000 -0.0000 -0.0000 0.0000 -12.8508 13.7820 31.9988 27.5384 0.0000 0.0000 -20.9733 -5.1974 0.2093 -4.3424 0.0000 -0.0000 -3.0190 5.0876 -26.5136 -0.4562 0.0000 -0.0000 -3.1105 8.0756 -26.4208 -0.7522 0.0000 -0.0000
 -0.3982 87.7641 24.0590 -8.9751 -5.4961 -74.1942 -3.7749 2.5025 1.3326 -2.0907 -2.9920 -0.1962 14.9699 15.4691 3.3526 0.4858 2.1427 -1.2768 -0.4043 1.5951 7.3536 16.9771 -1.9369 8.1969 -0.1448 -30.7618 -2.5370 30.1680 -47.4176 10.2872 -0.0000 0.0000 42.2197 -3.3597 6.8431 -0.6059 -0.0000 0.0000 0.0000 0.0000 -0.0000 -0.0000 -4.9321 29.3857 6.9604 28.9716 26.7199 -21.6333 -0.0000 -0.0000 -21.0647 -7.6855 -19.7981 -2.9589 -0.0000 -0.0000 -0.0000 -0.0000 -0.0000 0.0000 -13.2028 13.7216 29.7234 27.3756 0.0000 0.0000 -20.5667 -5.8696 1.9113 -4.1628 0.0000 -0.0000 -3.5002 4.4546 -26.9147 -0.5714 0.0000 -0.0000 -2.9232 8.5326 -27.0806 -0.8260 0.0000 -0.0000
 -0.3808 87.8900 24.0682 -8.4909 -5.7630 -73.3406 -3.6324 2.0665 1.2863 -1.9903 -3.3894 -0.2405 14.7894 15.9466 3.7191 0.3827 2.2939 -1.2599 -0.7445 1.5245 7.8164 16.7455 -2.0005 8.6237 -0.1129 -30.7157 -2.3741 30.8995 -47.4031 11.1726 -0.0000 0.0000 41.2356 -3.7407 6.8638 -0.6216 0.0000 0.0000 -0.0000 -0.0000 -0.0000 0.0000 -5.0032 29.8007 6.8196 28.3841 26.3146 -21.3092 -0.0000 -0.0000 -20.6971 -8.1646 -19.5952 -3.0219 0.0000 0.0000 -0.0000 0.0000 0.0000 -0.0000 -13.6551 13.5702 27.1479 27.4019 0.0000 0.0000 -20.1275 -6.3056 3.6947 -4.0295 0.0000 -0.0000 -4.1177 3.8264 -27.2449 -0.4759 0.0000 -0.0000 -2.7949 8.9799 -27.6442 -0.8777 0.0000 -0.0000
 -0.3560 88.0179 24.0787 -7.9686 -6.0946 -72.5131 -3.5117 1.6552 1.2372 -1.8795 -3.7627 -0.2799 14.5256 16.3125 4.1234 0.2775 2.4780 -1.2478 -1.0858 1.4855 8.3179 16.5221 -2.0780 9.0725 -0.0865 -30.5558 -2.1716 31.7596 -47.4182 12.2230 -0.0000 0.0000 40.1391 -4.1621 6.9235 -0.6598 0.0000 -0.0000 -0.0000 -0.0000 -0.0000 -0.0000 -5.1178 30.1739 6.7448 27.8570 26.0227 -21.0772 -0.0000 -0.0000 -20.3354 -8.6533 -19.5161 -3.0698 0.0000 0.0000 -0.0000 -0.0000 0.0000 -0.0000 -14.2457 13.3887 24.4551 27.5629 0.0000 0.0000 -19.6882 -6.5077 5.4414 -3.9279 0.0000 -0.0000 -4.9598 3.2899 -27.4234 -0.0887 0.0000 -0.0000 -2.7383 9.3960 -28.0755 -0.9036 0.0000 -0.0000
 -0.3253 88.1466 24.0901 -7.4069 -6.4612 -71.6975 -3.4053 1.2385 1.1769 -1.7462 -4.0095 -0.2898 14.1949 16.4543 4.5626 0.1722 2.7075 -1.2489 -1.4373 1.4904 8.8556 16.3057 -2.1690 9.5339 -0.0380 -30.2670 -1.9061 32.7407 -47.4496 13.4341 -0.0000 0.0000 38.9598 -4.6200 7.0135 -0.7406 -0.0000 0.0000 0.0000 0.0000 0.0000 -0.0000 -5.2965 30.4904 6.7568 27.4037 25.8875 -20.9407 -0.0000 -0.0000 -20.0044 -9.1322 -19.5814 -3.1072 0.0000 -0.0000 -0.0000 -0.0000 0.0000 -0.0000 -14.8892 13.1765 21.8079 27.7533 0.0000 0.0000 -19.2591 -6.4923 7.0279 -3.8434 0.0000 -0.0000 -5.9980 2.8564 -27.3560 0.6213 0.0000 0.0000 -2.7605 9.7612 -28.3534 -0.9150 0.0000 -0.0000
